American film institue (AFI) has published top10 gangster movies of 20th century.

AFI described gangster films as "a genre that centers on organized crime or maverick criminals in a twentieth century setting. Profit-minded and highly entrepreneurial, the American gangster is the dark side of the American dream. The gangsters' lifestyles are portraits in extremes, with audiences cheering their excesses and reveling in their demise."

Nominees: Robert De Niro was the most featured actor with seven movies; James Cagney and Al Pacino were featured with five movies each.

Winners:  The Godfather (1972) (# 1), GoodFellas (1990) (# 2),  The Godfather, Part II (1974) (# 3), White Heat (1949) (# 4), Bonnie and Clyde (1967) (# 5), Scarface: The Shame of a Nation (1932) (# 6),  Pulp Fiction (1994) (# 7), The Public Enemy (1931) (# 8), Little Caesar (1930) (# 9), Scarface (1983) (# 10).

***THIS PACK INCLUDES TOP 10 GANGSTER MOVIES***

It really took some hard work to convert and publish all this, so please seed after downloading, thanks.



QUALITY IS LIKE THIS (can't post for all) -

Format                                   : MPEG-4
Format profile                           : Base Media
Codec ID                                 : isom
File size                                : 751 MiB
Duration                                 : 2h 34mn
Overall bit rate mode                    : Variable
Overall bit rate                         : 678 Kbps
Encoded date                             : UTC 2012-03-23 01:22:00
Tagged date                              : UTC 2012-03-23 01:22:00

Video
ID                                       : 1
Format                                   : AVC
Format/Info                              : Advanced Video Codec
Format profile                           : High@L3.1
Format settings, CABAC                   : Yes
Format settings, ReFrames                : 5 frames
Codec ID                                 : avc1
Codec ID/Info                            : Advanced Video Coding
Duration                                 : 2h 34mn
Bit rate                                 : 614 Kbps
Maximum bit rate                         : 2 063 Kbps
Width                                    : 1 280 pixels
Height                                   : 544 pixels
Display aspect ratio                     : 2.35:1
Frame rate mode                          : Constant
Frame rate                               : 23.976 fps
Color space                              : YUV
Chroma subsampling                       : 4:2:0
Bit depth                                : 8 bits
Scan type                                : Progressive
Bits/(Pixel*Frame)                       : 0.037
Stream size                              : 677 MiB (90%)
Writing library                          : x264 core 120 r2164 da19765

Audio
ID                                       : 2
Format                                   : AAC
Format/Info                              : Advanced Audio Codec
Format profile                           : HE-AAC / LC
Codec ID                                 : 40
Duration                                 : 2h 34mn
Bit rate mode                            : Variable
Bit rate                                 : 64.0 Kbps
Maximum bit rate                         : 71.3 Kbps
Channel(s)                               : 2 channels
Channel positions                        : Front: L R
Sampling rate                            : 22.05 KHz / 11.025 KHz
Compression mode                         : Lossy
Stream size                              : 70.9 MiB (9%)
Encoded date                             : UTC 2012-03-23 01:22:14
Tagged date                              : UTC 2012-03-23 01:22:20

